<svg width="617" height="520" xmlns="http://www.w3.org/2000/svg" version="1.1"><g transform="translate(0, 10)"><g class="links" fill="none" stroke-opacity="0.4"><path d="M5,88.19148936170215C104.5,88.19148936170215,104.5,78.19148936170204,204,78.19148936170204" stroke-width="52.12765957446808" style="stroke: rgb(191, 105, 105);"></path><path d="M5,307.1276595744681C104.5,307.1276595744681,104.5,307.1276595744682,204,307.1276595744682" stroke-width="385.7446808510638" style="stroke: rgb(191, 105, 105);"></path><path d="M5,26.063829787234155C104.5,26.063829787234155,104.5,26.063829787233956,204,26.063829787233956" stroke-width="52.12765957446808" style="stroke: rgb(191, 191, 105);"></path><path d="M209,41.70212765957438C308.5,41.70212765957438,308.5,41.70212765957435,408,41.70212765957435" stroke-width="83.40425531914893" style="stroke: rgb(105, 191, 105);"></path><path d="M209,93.82978723404246C308.5,93.82978723404246,308.5,322.7659574468083,408,322.7659574468083" stroke-width="20.851063829787233" style="stroke: rgb(105, 191, 105);"></path><path d="M209,223.72340425531928C308.5,223.72340425531928,308.5,192.87234042553177,408,192.87234042553177" stroke-width="218.93617021276594" style="stroke: rgb(105, 191, 191);"></path><path d="M209,416.59574468085117C308.5,416.59574468085117,308.5,416.5957446808508,408,416.5957446808508" stroke-width="166.80851063829786" style="stroke: rgb(105, 191, 191);"></path><path d="M413,151.17021276595733C512.5,151.17021276595733,512.5,151.17021276595753,612,151.17021276595753" stroke-width="302.3404255319149" style="stroke: rgb(105, 105, 191);"></path><path d="M413,395.7446808510636C512.5,395.7446808510636,512.5,385.74468085106395,612,385.74468085106395" stroke-width="166.80851063829786" style="stroke: rgb(191, 105, 191);"></path><path d="M413,489.57446808510616C512.5,489.57446808510616,512.5,489.5744680851064,612,489.5744680851064" stroke-width="20.851063829787233" style="stroke: rgb(191, 105, 191);"></path></g><g class="nodes" font-family="Arial, Helvetica" font-size="10"><g><rect x="204" y="-8.526512829121202e-14" height="104.2553191489364" width="5" fill="#000"></rect><text x="198" y="52.12765957446811" dy="0.35em" text-anchor="end">ECCO no</text></g><g><rect x="204" y="114.25531914893631" height="385.7446808510638" width="5" fill="#000"></rect><text x="198" y="307.1276595744682" dy="0.35em" text-anchor="end">ECCO yes</text></g><g><rect x="612" y="8.526512829121202e-14" height="469.1489361702127" width="5" fill="#000"></rect><text x="606" y="234.57446808510645" dy="0.35em" text-anchor="end">TCP no</text></g><g><rect x="612" y="479.1489361702128" height="20.85106382978711" width="5" fill="#000"></rect><text x="606" y="489.57446808510633" dy="0.35em" text-anchor="end">TCP yes</text></g><g><rect x="0" y="1.1368683772161603e-13" height="52.127659574468" width="5" fill="#000"></rect><text x="11" y="26.063829787234113" dy="0.35em" text-anchor="start">ESTC no</text></g><g><rect x="0" y="62.12765957446811" height="437.8723404255318" width="5" fill="#000"></rect><text x="11" y="281.063829787234" dy="0.35em" text-anchor="start">ESTC yes</text></g><g><rect x="408" y="-1.1368683772161603e-13" height="302.3404255319148" width="5" fill="#000"></rect><text x="402" y="151.17021276595727" dy="0.35em" text-anchor="end">Hathi no</text></g><g><rect x="408" y="312.34042553191466" height="187.65957446808545" width="5" fill="#000"></rect><text x="402" y="406.1702127659574" dy="0.35em" text-anchor="end">Hathi yes</text></g></g></g></svg>