<?xml version="1.0" encoding="utf-8"?>
<!-- Generator: Adobe Illustrator 24.0.3, SVG Export Plug-In . SVG Version: 6.00 Build 0)  -->
<svg version="1.1" xmlns="http://www.w3.org/2000/svg" xmlns:xlink="http://www.w3.org/1999/xlink" x="0px" y="0px"
	 viewBox="0 0 720 500" style="enable-background:new 0 0 720 500;" xml:space="preserve">
<style type="text/css">
	.st0{fill:#902AEA;}
	.st1{fill:#F932B2;}
	.st2{fill:#34A9F7;}
	.st3{fill:#E82D79;}
	.st4{fill:#2EE57C;}
	.st5{fill:none;stroke:#CCCCCC;}
	.st6{fill:#EEEEEE;stroke:#999999;}
	.st7{enable-background:new    ;}
	.st8{font-family:'ArialMT';}
	.st9{font-size:14.2594px;}
</style>
<g id="Layer_2">
	<rect x="75.1" y="17" class="st0" width="169.1" height="430"/>
	<rect x="244.1" y="17" class="st1" width="401.8" height="60"/>
	<rect x="244.1" y="77" class="st2" width="188.4" height="370"/>
	<rect x="432.5" y="76.3" class="st3" width="213.4" height="350"/>
	<rect x="432.5" y="426.3" class="st4" width="213.4" height="20.7"/>
</g>
<g id="Layer_1">
	<path class="st5" d="M229.4,207.6c-86.7,0-86.7,0-186.7,0"/>
	<path class="st5" d="M416.1,45.5c-86.7,0-86.7,162-186.7,162"/>
	<path class="st5" d="M416.1,369.6c-86.7,0-86.7-162-186.7-162"/>
	<path class="st5" d="M602.8,45.5c-86.7,0-86.7,0-186.7,0"/>
	<path class="st5" d="M602.8,304.8c-86.7,0-86.7,64.8-186.7,64.8"/>
	<path class="st5" d="M602.8,434.4c-86.7,0-86.7-64.8-186.7-64.8"/>
	<g transform="translate(0, 225)">
		<ellipse class="st6" cx="42.8" cy="-17.4" rx="4.5" ry="5.8"/>
	</g>
	<g transform="translate(186.66666666666669, 225)">
		<ellipse class="st6" cx="42.8" cy="-17.4" rx="4.5" ry="5.8"/>
		<text transform="matrix(0.7714 0 0 1 25.6322 -13.5391)" class="st7"><tspan x="0" y="0" class="st8 st9">ESTC </tspan><tspan x="0" y="17.1" class="st8 st9">yes 43</tspan></text>
	</g>
	<g transform="translate(373.33333333333337, 100)">
		<ellipse class="st6" cx="42.8" cy="-54.5" rx="4.5" ry="5.8"/>
		<text transform="matrix(0.7714 0 0 1 30.5143 -50.5781)" class="st7"><tspan x="0" y="0" class="st8 st9">ECCO </tspan><tspan x="0" y="17.1" class="st8 st9">no 6</tspan></text>
	</g>
	<g transform="translate(373.33333333333337, 350)">
		<ellipse class="st6" cx="42.8" cy="19.6" rx="4.5" ry="5.8"/>
		<text transform="matrix(0.7714 0 0 1 25.6325 23.5)" class="st7"><tspan x="0" y="0" class="st8 st9">ECCO </tspan><tspan x="0" y="17.1" class="st8 st9">yes 37</tspan></text>
	</g>
	<g transform="translate(560, 100)">
		<ellipse class="st6" cx="42.8" cy="-54.5" rx="4.5" ry="5.8"/>
		<text transform="matrix(0.7714 0 0 1 50.75 -50.5781)" class="st7"><tspan x="0" y="0" class="st8 st9">TCP </tspan><tspan x="0" y="17.1" class="st8 st9">nono 6</tspan></text>
	</g>
	<g transform="translate(560, 300)">
		<ellipse class="st6" cx="42.8" cy="4.8" rx="4.5" ry="5.8"/>
		<text transform="matrix(0.7714 0 0 1 50.75 8.6836)" class="st7"><tspan x="0" y="0" class="st8 st9">TCP </tspan><tspan x="0" y="17.1" class="st8 st9">yesno 35</tspan></text>
	</g>
	<g transform="translate(560, 400)">
		<ellipse class="st6" cx="42.8" cy="34.4" rx="4.5" ry="5.8"/>
		<text transform="matrix(0.7714 0 0 1 50.75 38.3145)" class="st7"><tspan x="0" y="0" class="st8 st9">TCP </tspan><tspan x="0" y="17.1" class="st8 st9">yes 2</tspan></text>
	</g>
</g>
</svg>
