<svg width="720" height="520" xmlns="http://www.w3.org/2000/svg" version="1.1"><g transform="translate(0, 10)"><g class="links" fill="none" stroke-opacity="0.4"><path d="M5,39.186046511627794C121.66666666666667,39.186046511627794,121.66666666666667,34.186046511628135,238.33333333333334,34.186046511628135" stroke-width="68.37209302325581" style="stroke: rgb(191, 105, 105);"></path><path d="M5,284.1860465116278C121.66666666666667,284.1860465116278,121.66666666666667,289.18604651162775,238.33333333333334,289.18604651162775" stroke-width="421.6279069767442" style="stroke: rgb(191, 105, 105);"></path><path d="M243.33333333333334,28.488372093023486C360,28.488372093023486,360,28.48837209302323,476.6666666666667,28.48837209302323" stroke-width="56.97674418604652" style="stroke: rgb(174, 191, 105);"></path><path d="M243.33333333333334,62.67441860465139C360,62.67441860465139,360,346.16279069767444,476.6666666666667,346.16279069767444" stroke-width="11.395348837209303" style="stroke: rgb(174, 191, 105);"></path><path d="M243.33333333333334,215.11627906976724C360,215.11627906976724,360,193.72093023255812,476.6666666666667,193.72093023255812" stroke-width="273.48837209302326" style="stroke: rgb(105, 191, 139);"></path><path d="M243.33333333333334,425.9302325581393C360,425.9302325581393,360,425.93023255813955,476.6666666666667,425.93023255813955" stroke-width="148.13953488372093" style="stroke: rgb(105, 191, 139);"></path><path d="M481.6666666666667,165.23255813953486C598.3333333333334,165.23255813953486,598.3333333333334,165.2325581395349,715,165.2325581395349" stroke-width="330.4651162790698" style="stroke: rgb(105, 139, 191);"></path><path d="M481.6666666666667,408.8372093023256C598.3333333333334,408.8372093023256,598.3333333333334,398.8372093023256,715,398.8372093023256" stroke-width="136.74418604651163" style="stroke: rgb(174, 105, 191);"></path><path d="M481.6666666666667,488.60465116279073C598.3333333333334,488.60465116279073,598.3333333333334,488.6046511627907,715,488.6046511627907" stroke-width="22.790697674418606" style="stroke: rgb(174, 105, 191);"></path></g><g class="nodes" font-family="Arial, Helvetica" font-size="10"><g><rect x="238.33333333333334" y="2.2737367544323206e-13" height="68.37209302325539" width="5" fill="#000"></rect><text x="232.33333333333334" y="34.18604651162792" dy="0.35em" text-anchor="end">ECCO no</text></g><g><rect x="238.33333333333334" y="78.37209302325562" height="421.62790697674416" width="5" fill="#000"></rect><text x="232.33333333333334" y="289.1860465116277" dy="0.35em" text-anchor="end">ECCO yes</text></g><g><rect x="715" y="0" height="467.20930232558135" width="5" fill="#000"></rect><text x="709" y="233.60465116279067" dy="0.35em" text-anchor="end">TCP no</text></g><g><rect x="715" y="477.20930232558135" height="22.790697674418652" width="5" fill="#000"></rect><text x="709" y="488.6046511627907" dy="0.35em" text-anchor="end">TCP yes</text></g><g><rect x="0" y="4.999999999999886" height="490.0000000000002" width="5" fill="#000"></rect><text x="11" y="250" dy="0.35em" text-anchor="start">ESTC yes</text></g><g><rect x="476.6666666666667" y="-2.842170943040401e-14" height="330.4651162790698" width="5" fill="#000"></rect><text x="470.6666666666667" y="165.23255813953486" dy="0.35em" text-anchor="end">Hathi no</text></g><g><rect x="476.6666666666667" y="340.4651162790698" height="159.53488372093028" width="5" fill="#000"></rect><text x="470.6666666666667" y="420.23255813953494" dy="0.35em" text-anchor="end">Hathi yes</text></g></g></g></svg>