<svg width="720" height="520" xmlns="http://www.w3.org/2000/svg" version="1.1"><g transform="translate(0, 10)"><g class="links" fill="none" stroke-opacity="0.4"><path d="M5,34.166666666666664C181.25,34.166666666666664,181.25,29.166666666666522,357.5,29.166666666666522" stroke-width="58.33333333333333" style="stroke: rgb(191, 105, 105);"></path><path d="M5,279.16666666666663C181.25,279.16666666666663,181.25,284.16666666666674,357.5,284.16666666666674" stroke-width="431.66666666666663" style="stroke: rgb(191, 105, 105);"></path><path d="M362.5,29.166666666666522C538.75,29.166666666666522,538.75,29.166666666666664,715,29.166666666666664" stroke-width="58.33333333333333" style="stroke: rgb(105, 191, 105);"></path><path d="M362.5,272.5000000000001C538.75,272.5000000000001,538.75,262.5,715,262.5" stroke-width="408.3333333333333" style="stroke: rgb(105, 105, 191);"></path><path d="M362.5,488.3333333333334C538.75,488.3333333333334,538.75,488.3333333333333,715,488.3333333333333" stroke-width="23.333333333333332" style="stroke: rgb(105, 105, 191);"></path></g><g class="nodes" font-family="Arial, Helvetica" font-size="10"><g><rect x="357.5" y="-1.4210854715202004e-13" height="58.3333333333336" width="5" fill="#000"></rect><text x="351.5" y="29.166666666666657" dy="0.35em" text-anchor="end">no</text></g><g><rect x="357.5" y="68.33333333333346" height="431.6666666666667" width="5" fill="#000"></rect><text x="351.5" y="284.1666666666668" dy="0.35em" text-anchor="end">yes</text></g><g><rect x="715" y="0" height="466.66666666666663" width="5" fill="#000"></rect><text x="709" y="233.33333333333331" dy="0.35em" text-anchor="end">no</text></g><g><rect x="715" y="476.66666666666663" height="23.33333333333337" width="5" fill="#000"></rect><text x="709" y="488.3333333333333" dy="0.35em" text-anchor="end">yes</text></g><g><rect x="0" y="5" height="490" width="5" fill="#000"></rect><text x="11" y="250" dy="0.35em" text-anchor="start">yes</text></g></g></g></svg>