<?xml version="1.0" encoding="utf-8"?>
<!-- Generator: Adobe Illustrator 24.0.3, SVG Export Plug-In . SVG Version: 6.00 Build 0)  -->
<svg version="1.1" id="Layer_1" xmlns="http://www.w3.org/2000/svg" xmlns:xlink="http://www.w3.org/1999/xlink" x="0px" y="0px"
	 viewBox="0 0 617 520" style="enable-background:new 0 0 617 520;" xml:space="preserve">
<style type="text/css">
	.st0{fill:none;stroke:#BF6969;stroke-width:437.8723;stroke-opacity:0.4;}
	.st1{fill:none;stroke:#BF6969;stroke-width:52.1277;stroke-opacity:0.4;}
	.st2{fill:none;stroke:#BFB369;stroke-width:52.1277;stroke-opacity:0.4;}
	.st3{fill:none;stroke:#BFB369;stroke-width:385.7447;stroke-opacity:0.4;}
	.st4{fill:none;stroke:#82BF69;stroke-width:52.1277;stroke-opacity:0.4;}
	.st5{fill:none;stroke:#69BF9A;stroke-width:83.4043;stroke-opacity:0.4;}
	.st6{fill:none;stroke:#69BF9A;stroke-width:20.8511;stroke-opacity:0.4;}
	.st7{fill:none;stroke:#699ABF;stroke-width:218.9362;stroke-opacity:0.4;}
	.st8{fill:none;stroke:#699ABF;stroke-width:166.8085;stroke-opacity:0.4;}
	.st9{fill:none;stroke:#8269BF;stroke-width:302.3404;stroke-opacity:0.4;}
	.st10{fill:none;stroke:#BF69B3;stroke-width:166.8085;stroke-opacity:0.4;}
	.st11{fill:none;stroke:#BF69B3;stroke-width:20.8511;stroke-opacity:0.4;}
	.st12{font-family:'ArialMT';}
	.st13{font-size:10px;}
	.st14{enable-background:new    ;}
</style>
<g transform="translate(0, 10)">
	<g>
		<path class="st0" d="M5,276.1c74,0,74,5,148,5"/>
		<path class="st1" d="M5,31.1c74,0,74-5,148-5"/>
		<path class="st2" d="M158,88.2c74,0,74-10,148-10"/>
		<path class="st3" d="M158,307.1c74,0,74,0,148,0"/>
		<path class="st4" d="M158,26.1c74,0,74,0,148,0"/>
		<path class="st5" d="M311,41.7c74,0,74,0,148,0"/>
		<path class="st6" d="M311,93.8c74,0,74,228.9,148,228.9"/>
		<path class="st7" d="M311,223.7c74,0,74-30.9,148-30.9"/>
		<path class="st8" d="M311,416.6c74,0,74,0,148,0"/>
		<path class="st9" d="M464,151.2c74,0,74,0,148,0"/>
		<path class="st10" d="M464,395.7c74,0,74-10,148-10"/>
		<path class="st11" d="M464,489.6c74,0,74,0,148,0"/>
	</g>
	<g>
		<g>
			<rect x="306" width="5" height="104.3"/>
			<text transform="matrix(1 0 0 1 257.207 55.6277)" class="st12 st13">ECCO no</text>
		</g>
		<g>
			<rect x="306" y="114.3" width="5" height="385.7"/>
			<text transform="matrix(1 0 0 1 252.7686 310.6277)" class="st12 st13">ECCO yes</text>
		</g>
		<g>
			<rect x="612" width="5" height="469.1"/>
			<text transform="matrix(1 0 0 1 572.2793 238.0745)" class="st12 st13">TCP no</text>
		</g>
		<g>
			<rect x="612" y="479.1" width="5" height="20.9"/>
			<text transform="matrix(1 0 0 1 567.8408 493.0745)" class="st12 st13">TCP yes</text>
		</g>
		<g>
			<rect x="153" width="5" height="52.1"/>
			<text transform="matrix(1 0 0 1 106.4287 29.5638)" class="st12 st13">ESTC no</text>
		</g>
		<g>
			<rect x="153" y="62.1" width="5" height="437.9"/>
			<text transform="matrix(1 0 0 1 101.9902 284.5638)" class="st12 st13">ESTC yes</text>
		</g>
		<g>
			<rect x="459" width="5" height="302.3"/>
			<text transform="matrix(1 0 0 1 415.7539 154.6702)" class="st12 st13">Hathi no</text>
		</g>
		<g>
			<rect x="459" y="312.3" width="5" height="187.7"/>
			<text transform="matrix(1 0 0 1 411.3154 409.6702)" class="st12 st13">Hathi yes</text>
		</g>
		<g>
			<rect y="5" width="5" height="490"/>
			<text transform="matrix(1 0 0 1 11 253.5)" class="st14"><tspan x="0" y="0" class="st12 st13">Works printed in  </tspan><tspan x="0" y="12" class="st12 st13">England, 1784-1807</tspan></text>
		</g>
	</g>
</g>
</svg>
