<?xml version="1.0" encoding="utf-8"?>
<!-- Generator: Adobe Illustrator 24.1.0, SVG Export Plug-In . SVG Version: 6.00 Build 0)  -->
<svg version="1.1" id="Layer_1" xmlns="http://www.w3.org/2000/svg" xmlns:xlink="http://www.w3.org/1999/xlink" x="0px" y="0px"
	 viewBox="0 0 617 520" style="enable-background:new 0 0 617 520;" xml:space="preserve">
<style type="text/css">
	.st0{fill:none;stroke:#BF6969;stroke-width:437.8723;stroke-opacity:0.4;}
	.st1{fill:none;stroke:#BF6969;stroke-width:52.1277;stroke-opacity:0.4;}
	.st2{fill:none;stroke:#BFA269;stroke-width:52.1277;stroke-opacity:0.4;}
	.st3{fill:none;stroke:#BFA269;stroke-width:385.7447;stroke-opacity:0.4;}
	.st4{fill:none;stroke:#A2BF69;stroke-width:52.1277;stroke-opacity:0.4;}
	.st5{fill:none;stroke:#69BF69;stroke-width:83.4043;stroke-opacity:0.4;}
	.st6{fill:none;stroke:#69BF69;stroke-width:20.8511;stroke-opacity:0.4;}
	.st7{fill:none;stroke:#69BFA2;stroke-width:218.9362;stroke-opacity:0.4;}
	.st8{fill:none;stroke:#69BFA2;stroke-width:166.8085;stroke-opacity:0.4;}
	.st9{fill:none;stroke:#69A2BF;stroke-width:302.3404;stroke-opacity:0.4;}
	.st10{fill:none;stroke:#6969BF;stroke-width:166.8085;stroke-opacity:0.4;}
	.st11{fill:none;stroke:#6969BF;stroke-width:20.8511;stroke-opacity:0.4;}
	.st12{fill:none;stroke:#A269BF;stroke-width:458.7234;stroke-opacity:0.4;}
	.st13{fill:none;stroke:#A269BF;stroke-width:10.4255;stroke-opacity:0.4;}
	.st14{fill:none;stroke:#BF69A2;stroke-width:20.8511;stroke-opacity:0.4;}
	.st15{font-family:'ArialMT';}
	.st16{font-size:10px;}
	.st17{enable-background:new    ;}
</style>
<g>
	<path class="st0" d="M3,286.1c59.9,0,59.9,5,119.8,5"/>
	<path class="st1" d="M3,41.1c59.9,0,59.9-5,119.8-5"/>
	<path class="st2" d="M125.8,98.2c59.9,0,59.9-10,119.8-10"/>
	<path class="st3" d="M125.8,317.1c59.9,0,59.9,0,119.8,0"/>
	<path class="st4" d="M125.8,36.1c59.9,0,59.9,0,119.8,0"/>
	<path class="st5" d="M248.6,51.7c59.9,0,59.9,0,119.8,0"/>
	<path class="st6" d="M248.6,103.8c59.9,0,59.9,228.9,119.8,228.9"/>
	<path class="st7" d="M248.6,233.7c59.9,0,59.9-30.9,119.8-30.9"/>
	<path class="st8" d="M248.6,426.6c59.9,0,59.9,0,119.8,0"/>
	<path class="st9" d="M371.4,161.2c59.9,0,59.9,0,119.8,0"/>
	<path class="st10" d="M371.4,405.7c59.9,0,59.9-10,119.8-10"/>
	<path class="st11" d="M371.4,499.6c59.9,0,59.9,0,119.8,0"/>
	<path class="st12" d="M494.2,239.4c59.9,0,59.9,0,119.8,0"/>
	<path class="st13" d="M494.2,473.9c59.9,0,59.9,30.9,119.8,30.9"/>
	<path class="st14" d="M494.2,499.6c59.9,0,59.9-20.4,119.8-20.4"/>
</g>
<g>
	<rect x="245.6" y="10" width="3" height="104.3"/>
	<text transform="matrix(1 0 0 1 196.807 65.6277)" class="st15 st16">ECCO no</text>
</g>
<g>
	<rect x="245.6" y="124.3" width="3" height="385.7"/>
	<text transform="matrix(1 0 0 1 192.3685 320.6277)" class="st15 st16">ECCO yes</text>
</g>
<g>
	<rect x="491.2" y="10" width="3" height="469.1"/>
	<text transform="matrix(1 0 0 1 451.4792 248.0745)" class="st15 st16">TCP no</text>
</g>
<g>
	<rect x="491.2" y="489.1" width="3" height="20.9"/>
	<text transform="matrix(1 0 0 1 447.0408 503.0745)" class="st15 st16">TCP yes</text>
</g>
<g>
	<rect x="122.8" y="10" width="3" height="52.1"/>
	<text transform="matrix(1 0 0 1 76.2287 39.5638)" class="st15 st16">ESTC no</text>
</g>
<g>
	<rect x="122.8" y="72.1" width="3" height="437.9"/>
	<text transform="matrix(1 0 0 1 71.7902 294.5638)" class="st15 st16">ESTC yes</text>
</g>
<g>
	<rect x="614" y="10" width="3" height="479.6"/>
	<text transform="matrix(1 0 0 1 546.8428 253.2872)" class="st15 st16">Gutenberg no</text>
</g>
<g>
	<rect x="614" y="499.6" width="3" height="10.4"/>
	<text transform="matrix(1 0 0 1 542.4043 508.2872)" class="st15 st16">Gutenberg yes</text>
</g>
<g>
	<rect x="368.4" y="10" width="3" height="302.3"/>
	<text transform="matrix(1 0 0 1 325.1539 164.6702)" class="st15 st16">Hathi no</text>
</g>
<g>
	<rect x="368.4" y="322.3" width="3" height="187.7"/>
	<text transform="matrix(1 0 0 1 320.7155 419.6702)" class="st15 st16">Hathi yes</text>
</g>
<rect y="15" width="3" height="490"/>
<text transform="matrix(1 0 0 1 9 253.2872)" class="st17"><tspan x="0" y="0" class="st15 st16">Works by Smith</tspan><tspan x="0" y="12" class="st15 st16">printed in England,</tspan><tspan x="0" y="24" class="st15 st16">1784-1807</tspan></text>
</svg>
